<?xml version="1.0" encoding="utf-8"?>
<!-- Generator: Adobe Illustrator 23.0.1, SVG Export Plug-In . SVG Version: 6.00 Build 0)  -->
<svg version="1.1" id="Layer_1" xmlns="http://www.w3.org/2000/svg" xmlns:xlink="http://www.w3.org/1999/xlink" x="0px" y="0px"
	 viewBox="0 0 1080 382" style="enable-background:new 0 0 1080 382;" xml:space="preserve">
<style type="text/css">
	.st0{fill:#40C4D9;}
	.st1{fill:#FB7F04;}
	.st2{fill:#75B5A6;}
	.st3{fill:#FAA69C;}
	.st4{fill:#E5AA17;}
	.st5{enable-background:new    ;}
	.st6{fill:#333333;}
</style>
<g>
	<path class="st0" d="M509,72.1v-6c0-1.6,1.3-3,3-3h85c1.6,0,3,1.3,3,3v6c0,1.6-1.3,3-3,3h-85C510.4,75.1,509,73.7,509,72.1z"/>
	<path class="st1" d="M509,100.1v-6c0-1.7,1.4-3,3-3h85c1.6,0,3,1.3,3,3v6c0,1.7-1.4,3-3,3h-85C510.4,103.1,509,101.7,509,100.1z"/>
	<path class="st2" d="M509,130.1v-6c0-1.7,1.4-3,3-3h85c1.7,0,3,1.4,3,3v6c0,1.7-1.4,3-3,3h-85C510.4,133.1,509,131.8,509,130.1z"/>
	<path class="st3" d="M509,160v-6c0-1.6,1.4-3,3-3h85c1.6,0,3,1.4,3,3v6c0,1.6-1.4,3-3,3h-85C510.4,163,509,161.7,509,160z"/>
	<path class="st4" d="M509,188v-6c0-1.7,1.4-3,3-3h85c1.6,0,3,1.3,3,3v6c0,1.6-1.4,3-3,3h-85C510.4,191,509,189.7,509,188z"/>
</g>
<g class="st5">
	<path class="st6" d="M107.9,245.7H82.2V315H73v-69.3H47.2v-8.6h60.7V245.7z"/>
	<path class="st6" d="M126.2,231.9h8.6v38.8h0.2c0.6-1,1.4-2,2.4-3c1-1,2.3-1.9,3.7-2.7c1.4-0.8,3-1.5,4.8-2
		c1.8-0.5,3.6-0.8,5.6-0.8c3.4,0,6.3,0.5,8.7,1.5c2.5,1,4.5,2.5,6.1,4.3c1.6,1.8,2.8,4.1,3.6,6.7c0.8,2.6,1.2,5.4,1.2,8.5V315h-8.6
		v-30.9c0-4.3-1-7.7-2.9-10.2c-1.9-2.5-4.9-3.7-8.9-3.7c-2.8,0-5.2,0.5-7.2,1.4c-2,1-3.7,2.3-4.9,4.1c-1.3,1.8-2.2,3.8-2.9,6.3
		c-0.6,2.4-0.9,5.1-0.9,8V315h-8.6V231.9z"/>
	<path class="st6" d="M242.2,305.7c-3.1,4-6.5,6.7-10.1,8.3c-3.7,1.6-7.9,2.4-12.8,2.4c-4,0-7.7-0.7-10.9-2.1
		c-3.2-1.4-6-3.4-8.2-5.8c-2.2-2.4-4-5.3-5.2-8.6c-1.2-3.3-1.8-6.8-1.8-10.6c0-4,0.7-7.6,2-10.9c1.3-3.3,3.2-6.2,5.5-8.6
		c2.3-2.4,5.1-4.2,8.4-5.6c3.2-1.3,6.7-2,10.6-2c3.6,0,6.9,0.6,9.9,1.8c3,1.2,5.6,3,7.8,5.3c2.2,2.3,3.8,5.1,5,8.5
		c1.2,3.3,1.8,7.1,1.8,11.4v2.7h-41.6c0.1,2.2,0.7,4.3,1.6,6.3c0.9,2,2.1,3.8,3.6,5.3c1.5,1.5,3.2,2.7,5.2,3.6s4.1,1.3,6.5,1.3
		c3.7,0,6.9-0.7,9.5-2c2.6-1.3,4.9-3.3,6.9-5.8L242.2,305.7z M234.8,284.7c-0.1-4.4-1.6-7.9-4.3-10.6c-2.7-2.6-6.5-4-11.2-4
		c-4.8,0-8.6,1.3-11.5,4c-2.9,2.6-4.7,6.2-5.3,10.6H234.8z"/>
	<path class="st6" d="M307.3,237.2h23.1c3.6,0,7,0.3,10.3,1c3.3,0.7,6.2,1.9,8.7,3.5c2.5,1.6,4.5,3.8,6,6.6
		c1.5,2.7,2.3,6.1,2.3,10.2c0,4.3-0.8,7.8-2.4,10.6c-1.6,2.8-3.7,5-6.2,6.6c-2.5,1.6-5.3,2.7-8.3,3.4c-3,0.7-5.9,1-8.6,1h-15.6v35
		h-9.2V237.2z M316.5,271.5h15.6c4.6,0,8.4-1,11.3-3.1c2.9-2.1,4.3-5.3,4.3-9.7s-1.4-7.6-4.3-9.7c-2.9-2.1-6.7-3.1-11.3-3.1h-15.6
		V271.5z"/>
	<path class="st6" d="M379.2,270.2c2.6-2.7,5.8-4.7,9.4-6c3.6-1.3,7.3-1.9,11.1-1.9c7.6,0,13.1,1.8,16.5,5.4
		c3.4,3.6,5.1,9.1,5.1,16.4v22.1c0,1.5,0.1,3,0.2,4.6c0.1,1.6,0.3,3,0.6,4.3h-8.2c-0.3-1.2-0.5-2.5-0.5-3.9c0-1.4-0.1-2.7-0.1-3.8
		H413c-1.7,2.6-3.9,4.8-6.8,6.5c-2.8,1.7-6.2,2.5-10.2,2.5c-2.6,0-5.1-0.3-7.4-1c-2.3-0.7-4.3-1.6-6-2.9c-1.7-1.3-3.1-2.9-4.1-4.8
		c-1-1.9-1.5-4.1-1.5-6.6c0-4.3,1.1-7.6,3.3-10c2.2-2.4,4.9-4.2,8.2-5.4c3.3-1.2,6.8-1.9,10.6-2.2c3.8-0.3,7.2-0.4,10.4-0.4h3.3
		v-1.5c0-3.7-1.1-6.6-3.4-8.5c-2.2-1.9-5.4-2.9-9.4-2.9c-2.8,0-5.5,0.5-8.2,1.4c-2.7,0.9-5,2.3-7.1,4.2L379.2,270.2z M404.1,290.3
		c-5.5,0-9.9,0.8-13.1,2.3c-3.2,1.5-4.8,4.1-4.8,7.6c0,3.2,1.1,5.5,3.2,6.9c2.2,1.4,4.9,2,8.1,2c2.5,0,4.7-0.4,6.5-1.3
		c1.9-0.8,3.4-2,4.7-3.4c1.2-1.4,2.2-3,2.9-4.9c0.7-1.9,1-3.9,1.1-6v-3.3H404.1z"/>
	<path class="st6" d="M446.6,231.9h8.6V315h-8.6V231.9z"/>
	<path class="st6" d="M527.1,305.7c-3.1,4-6.5,6.7-10.1,8.3c-3.7,1.6-7.9,2.4-12.8,2.4c-4,0-7.7-0.7-10.9-2.1
		c-3.2-1.4-6-3.4-8.2-5.8c-2.2-2.4-4-5.3-5.2-8.6c-1.2-3.3-1.8-6.8-1.8-10.6c0-4,0.7-7.6,2-10.9c1.3-3.3,3.2-6.2,5.5-8.6
		c2.3-2.4,5.1-4.2,8.4-5.6c3.2-1.3,6.7-2,10.6-2c3.6,0,6.9,0.6,9.9,1.8c3,1.2,5.6,3,7.8,5.3c2.2,2.3,3.8,5.1,5,8.5
		c1.2,3.3,1.8,7.1,1.8,11.4v2.7h-41.6c0.1,2.2,0.7,4.3,1.6,6.3c0.9,2,2.1,3.8,3.6,5.3c1.5,1.5,3.2,2.7,5.2,3.6s4.1,1.3,6.5,1.3
		c3.7,0,6.9-0.7,9.5-2c2.6-1.3,4.9-3.3,6.9-5.8L527.1,305.7z M519.8,284.7c-0.1-4.4-1.6-7.9-4.3-10.6c-2.7-2.6-6.5-4-11.2-4
		c-4.8,0-8.6,1.3-11.5,4c-2.9,2.6-4.7,6.2-5.3,10.6H519.8z"/>
	<path class="st6" d="M579.4,270.8h-15.2v25.7c0,1.7,0,3.2,0.1,4.7c0.1,1.4,0.4,2.7,0.9,3.7c0.5,1.1,1.3,1.9,2.3,2.5
		c1,0.6,2.5,0.9,4.4,0.9c1.2,0,2.5-0.1,3.8-0.4c1.3-0.3,2.6-0.7,3.7-1.3l0.3,7.8c-1.5,0.7-3.1,1.1-4.9,1.4c-1.8,0.3-3.5,0.4-5.1,0.4
		c-3.1,0-5.5-0.4-7.4-1.2c-1.8-0.8-3.3-1.9-4.3-3.4c-1-1.5-1.7-3.3-2-5.4c-0.3-2.2-0.5-4.6-0.5-7.2v-28.3h-11.2v-7.3h11.2v-14.6h8.6
		v14.6h15.2V270.8z"/>
	<path class="st6" d="M627.1,270.8h-15.2v25.7c0,1.7,0,3.2,0.1,4.7c0.1,1.4,0.4,2.7,0.9,3.7c0.5,1.1,1.3,1.9,2.3,2.5
		c1,0.6,2.5,0.9,4.4,0.9c1.2,0,2.5-0.1,3.8-0.4c1.3-0.3,2.6-0.7,3.7-1.3l0.3,7.8c-1.5,0.7-3.1,1.1-4.9,1.4c-1.8,0.3-3.5,0.4-5.1,0.4
		c-3.1,0-5.5-0.4-7.4-1.2c-1.8-0.8-3.3-1.9-4.3-3.4c-1-1.5-1.7-3.3-2-5.4c-0.3-2.2-0.5-4.6-0.5-7.2v-28.3h-11.2v-7.3h11.2v-14.6h8.6
		v14.6h15.2V270.8z"/>
	<path class="st6" d="M692.5,305.7c-3.1,4-6.5,6.7-10.1,8.3c-3.7,1.6-7.9,2.4-12.8,2.4c-4,0-7.7-0.7-10.9-2.1
		c-3.2-1.4-6-3.4-8.2-5.8c-2.2-2.4-4-5.3-5.2-8.6c-1.2-3.3-1.8-6.8-1.8-10.6c0-4,0.7-7.6,2-10.9c1.3-3.3,3.2-6.2,5.5-8.6
		c2.3-2.4,5.1-4.2,8.4-5.6c3.2-1.3,6.7-2,10.6-2c3.6,0,6.9,0.6,9.9,1.8c3,1.2,5.6,3,7.8,5.3c2.2,2.3,3.8,5.1,5,8.5
		c1.2,3.3,1.8,7.1,1.8,11.4v2.7h-41.6c0.1,2.2,0.7,4.3,1.6,6.3c0.9,2,2.1,3.8,3.6,5.3c1.5,1.5,3.2,2.7,5.2,3.6s4.1,1.3,6.5,1.3
		c3.7,0,6.9-0.7,9.5-2c2.6-1.3,4.9-3.3,6.9-5.8L692.5,305.7z M685.1,284.7c-0.1-4.4-1.6-7.9-4.3-10.6c-2.7-2.6-6.5-4-11.2-4
		c-4.8,0-8.6,1.3-11.5,4c-2.9,2.6-4.7,6.2-5.3,10.6H685.1z"/>
	<path class="st6" d="M794.6,250.9c-1.5-2.5-3.6-4.3-6.2-5.4c-2.6-1.1-5.2-1.7-8-1.7c-2.1,0-4.1,0.3-6,0.8c-2,0.5-3.8,1.3-5.3,2.3
		c-1.6,1-2.8,2.4-3.8,4.1c-1,1.7-1.4,3.7-1.4,5.9c0,1.8,0.3,3.3,0.8,4.7c0.5,1.4,1.4,2.6,2.7,3.7c1.2,1.1,2.9,2.1,5.1,3.1
		c2.1,1,4.7,1.9,7.8,2.9c3,1,5.9,2,8.7,3.1c2.8,1.1,5.3,2.5,7.5,4.2c2.2,1.7,3.9,3.8,5.2,6.3c1.3,2.5,1.9,5.7,1.9,9.5
		c0,3.9-0.8,7.3-2.3,10.1c-1.5,2.9-3.6,5.2-6.1,7.1c-2.5,1.9-5.4,3.3-8.7,4.2c-3.3,0.9-6.7,1.4-10.2,1.4c-2.3,0-4.5-0.2-6.8-0.6
		c-2.3-0.4-4.5-1-6.5-1.9c-2.1-0.8-4.1-1.9-5.9-3.3c-1.8-1.4-3.4-3-4.7-5l7.9-6.5c1.7,2.9,4,5,7,6.5c3,1.5,6.2,2.2,9.6,2.2
		c2,0,4-0.3,6-0.9c2-0.6,3.8-1.4,5.4-2.6c1.6-1.1,2.9-2.5,4-4.2c1-1.7,1.5-3.6,1.5-5.8c0-2.4-0.4-4.4-1.2-5.9
		c-0.8-1.5-2.1-2.8-3.7-3.9c-1.7-1.1-3.8-2.1-6.4-3c-2.6-0.9-5.6-1.9-9-3.1c-2.8-0.9-5.4-1.9-7.7-3c-2.3-1.1-4.4-2.5-6.1-4.2
		c-1.7-1.6-3.1-3.6-4.1-5.9c-1-2.3-1.5-5.1-1.5-8.3c0-3.7,0.7-7,2.2-9.8c1.5-2.8,3.4-5.1,5.9-7c2.5-1.9,5.3-3.3,8.5-4.2
		c3.2-1,6.5-1.4,9.9-1.4c4.4,0,8.4,0.7,12,2c3.6,1.4,6.9,3.7,9.7,7.1L794.6,250.9z"/>
	<path class="st6" d="M854.3,270.8h-15.2v25.7c0,1.7,0,3.2,0.1,4.7c0.1,1.4,0.4,2.7,0.9,3.7c0.5,1.1,1.3,1.9,2.3,2.5
		c1,0.6,2.5,0.9,4.4,0.9c1.2,0,2.5-0.1,3.8-0.4c1.3-0.3,2.6-0.7,3.7-1.3l0.3,7.8c-1.5,0.7-3.1,1.1-4.9,1.4c-1.8,0.3-3.5,0.4-5.1,0.4
		c-3.1,0-5.5-0.4-7.4-1.2c-1.8-0.8-3.3-1.9-4.3-3.4c-1-1.5-1.7-3.3-2-5.4c-0.3-2.2-0.5-4.6-0.5-7.2v-28.3h-11.2v-7.3h11.2v-14.6h8.6
		v14.6h15.2V270.8z"/>
	<path class="st6" d="M870.8,289.3c0-4,0.7-7.7,2.1-11c1.4-3.3,3.3-6.1,5.7-8.5c2.4-2.4,5.3-4.2,8.7-5.6c3.4-1.3,7-2,11-2
		s7.6,0.7,11,2c3.4,1.3,6.3,3.2,8.7,5.6c2.4,2.4,4.3,5.2,5.7,8.5c1.4,3.3,2.1,7,2.1,11c0,4-0.7,7.7-2.1,11c-1.4,3.3-3.3,6.1-5.7,8.5
		c-2.4,2.4-5.3,4.2-8.7,5.6c-3.4,1.3-7,2-11,2s-7.6-0.7-11-2c-3.4-1.3-6.3-3.2-8.7-5.6c-2.4-2.4-4.3-5.2-5.7-8.5
		C871.5,297,870.8,293.3,870.8,289.3z M880,289.3c0,2.7,0.4,5.2,1.3,7.5c0.8,2.3,2.1,4.3,3.7,6c1.6,1.7,3.5,3.1,5.8,4.1
		c2.2,1,4.7,1.5,7.5,1.5c2.8,0,5.3-0.5,7.5-1.5c2.2-1,4.2-2.3,5.8-4.1c1.6-1.7,2.8-3.7,3.7-6c0.8-2.3,1.3-4.8,1.3-7.5
		c0-2.7-0.4-5.2-1.3-7.5c-0.8-2.3-2.1-4.3-3.7-6c-1.6-1.7-3.5-3.1-5.8-4.1c-2.2-1-4.7-1.5-7.5-1.5c-2.8,0-5.3,0.5-7.5,1.5
		c-2.2,1-4.2,2.3-5.8,4.1c-1.6,1.7-2.8,3.7-3.7,6C880.4,284.1,880,286.6,880,289.3z"/>
	<path class="st6" d="M948,275.8c0-2.3-0.1-4.5-0.2-6.6c-0.1-2.1-0.2-3.9-0.2-5.6h8.1c0,1.4,0,2.8,0.1,4.2c0.1,1.4,0.1,2.8,0.1,4.3
		h0.2c0.6-1.2,1.4-2.5,2.5-3.6c1.1-1.2,2.3-2.2,3.8-3.1c1.5-0.9,3.1-1.6,4.9-2.2c1.8-0.5,3.8-0.8,5.9-0.8c0.6,0,1.2,0,1.8,0.1
		c0.6,0.1,1.2,0.2,1.8,0.4l-0.5,8.7c-1.5-0.4-3-0.7-4.6-0.7c-5.3,0-9.1,1.7-11.5,5.1c-2.4,3.4-3.6,8.1-3.6,14V315H948V275.8z"/>
	<path class="st6" d="M1039.6,305.7c-3.1,4-6.5,6.7-10.1,8.3c-3.7,1.6-7.9,2.4-12.8,2.4c-4,0-7.7-0.7-10.9-2.1
		c-3.2-1.4-6-3.4-8.2-5.8c-2.2-2.4-4-5.3-5.2-8.6c-1.2-3.3-1.8-6.8-1.8-10.6c0-4,0.7-7.6,2-10.9c1.3-3.3,3.2-6.2,5.5-8.6
		c2.3-2.4,5.1-4.2,8.4-5.6c3.2-1.3,6.7-2,10.6-2c3.6,0,6.9,0.6,9.9,1.8c3,1.2,5.6,3,7.8,5.3c2.2,2.3,3.8,5.1,5,8.5
		c1.2,3.3,1.8,7.1,1.8,11.4v2.7h-41.6c0.1,2.2,0.7,4.3,1.6,6.3c0.9,2,2.1,3.8,3.6,5.3c1.5,1.5,3.2,2.7,5.2,3.6s4.1,1.3,6.5,1.3
		c3.7,0,6.9-0.7,9.5-2c2.6-1.3,4.9-3.3,6.9-5.8L1039.6,305.7z M1032.2,284.7c-0.1-4.4-1.6-7.9-4.3-10.6c-2.7-2.6-6.5-4-11.2-4
		c-4.8,0-8.6,1.3-11.5,4c-2.9,2.6-4.7,6.2-5.3,10.6H1032.2z"/>
</g>
</svg>
